<svg width="148" height="58" viewBox="0 0 148 58" fill="none" xmlns="http://www.w3.org/2000/svg">
<path d="M32.7143 58.0002H1.84333L8.00625 32.1795C8.18506 31.4474 7.99542 31.126 7.41564 30.7206C2.51522 27.2981 -0.105137 22.5267 0.00323133 16.6177C0.163617 7.9299 6.40998 1.82679 13.8354 0.28268C20.228 -1.04684 28.9647 2.32388 32.3491 10.1749C35.4246 17.3089 33.2312 25.6084 26.9122 30.299C26.3194 30.7389 26.2122 31.1023 26.3801 31.7859L32.7143 58.0002Z" fill="white"/>
<path d="M64.9158 11.9846C72.9882 11.9846 76.6196 17.7071 76.6196 23.4306C76.6196 29.2038 72.9871 34.8249 64.9158 34.8249H58.508V46.5717H50.5862V11.9846H64.9158ZM64.5636 27.9476C67.5405 27.9476 68.6491 25.639 68.6491 23.4295C68.6491 21.2201 67.5394 18.8619 64.6134 18.8619H58.509V27.9476H64.5636Z" fill="white"/>
<path d="M98.5133 23.229L96.748 30.3069C95.2839 29.4539 94.1244 29.4043 93.3669 29.4043C90.4409 29.4043 88.02 31.8639 88.02 38.7919V46.5728H80.5534V23.1287H87.9181V28.0985C89.2814 24.2318 92.1055 22.526 94.9816 22.526C96.0924 22.526 97.3028 22.6262 98.5133 23.229Z" fill="white"/>
<path d="M100.883 15.2982C100.883 12.8375 103.002 10.9807 105.525 10.9807C108.048 10.9807 110.066 12.8386 110.066 15.2982C110.066 17.6575 108.048 19.6146 105.525 19.6146C103.002 19.6146 100.883 17.6575 100.883 15.2982ZM101.792 46.5717V23.1287H109.258V46.5717H101.792Z" fill="white"/>
<path d="M130.749 23.1287H138.871L128.882 46.5718H122.374L112.385 23.1287H120.507L125.653 37.0839L130.749 23.1287Z" fill="white"/>
<path d="M138.819 42.5551C138.819 40.046 140.887 38.1881 143.36 38.1881C145.882 38.1881 148.001 40.046 148.001 42.5551C148.001 45.1667 145.882 47.0225 143.36 47.0225C140.887 47.0236 138.819 45.1667 138.819 42.5551Z" fill="white"/>
</svg>
